#Comment line ignore any data following # character 
#Hierarchical Translation and Rotation (.htr) file 
[Header]	
#Header keywords are followed by a single value 
FileType HTR		#Single word string
DataType HTRS		#Translation followed by rotation and scale data
FileVersion 1		#integer
NumSegments 84		#integer
NumFrames 2		#integer
DataFrameRate 30		#integer, data frame rate in this file
EulerRotationOrder ZYX
CalibrationUnits mm
RotationUnits Degrees
GlobalAxisofGravity Y
BoneLengthAxis Y
ScaleFactor 1.00
[SegmentNames&Hierarchy]
#CHILD	PARENT
MASTER GLOBAL
root MASTER
chest root
L_mid_tent01 root
R_mid_tent01 root
spine01 root
Bip01_Neck chest
L_humerus chest
R_humerus chest
weapon_bone chest
Bip01_Head Bip01_Neck
eye_left_bone Bip01_Head
eye_right_bone Bip01_Head
L_forearm L_humerus
L_front_hand L_forearm
L_weapon_bone L_forearm
L_front_hand01_01 L_front_hand
L_front_hand02_01 L_front_hand
L_front_hand03_01 L_front_hand
L_front_hand01_02 L_front_hand01_01
L_front_hand02_02 L_front_hand02_01
L_front_hand03_02 L_front_hand03_01
R_forearm R_humerus
R_front_hand R_forearm
R_weapon_bone R_forearm
R_front_hand01_01 R_front_hand
R_front_hand02_01 R_front_hand
R_front_hand03_01 R_front_hand
R_front_hand01_02 R_front_hand01_01
R_front_hand02_02 R_front_hand02_01
R_front_hand03_02 R_front_hand03_01
null_rope01_connect L_mid_tent01
Rope1_Seg01 null_rope01_connect
Rope1_Seg02 Rope1_Seg01
Rope1_Seg03 Rope1_Seg02
Rope1_Seg04 Rope1_Seg03
Rope1_Seg05 Rope1_Seg04
Rope1_Seg06 Rope1_Seg05
Rope1_Seg07 Rope1_Seg06
Rope1_Seg09 Rope1_Seg07
L_mid_hand01 Rope1_Seg09
L_mid_hand02 Rope1_Seg09
L_mid_hand03 Rope1_Seg09
null_rope02_connect R_mid_tent01
Rope2_Seg01 null_rope02_connect
Rope2_Seg02 Rope2_Seg01
Rope2_Seg03 Rope2_Seg02
Rope2_Seg04 Rope2_Seg03
Rope2_Seg05 Rope2_Seg04
Rope2_Seg06 Rope2_Seg05
Rope2_Seg07 Rope2_Seg06
Rope2_Seg09 Rope2_Seg07
R_mid_hand01 Rope2_Seg09
R_mid_hand02 Rope2_Seg09
R_mid_hand03 Rope2_Seg09
spine02 spine01
spine03 spine02
pelvis spine03
null_rope03_connect pelvis
null_rope04_connect pelvis
Rope3_Seg01 null_rope03_connect
Rope3_Seg02 Rope3_Seg01
Rope3_Seg03 Rope3_Seg02
Rope3_Seg04 Rope3_Seg03
Rope3_Seg05 Rope3_Seg04
Rope3_Seg06 Rope3_Seg05
Rope3_Seg07 Rope3_Seg06
Rope3_Seg08 Rope3_Seg07
Rope3_Seg09 Rope3_Seg08
R_rear_hand01 Rope3_Seg09
R_rear_hand02 Rope3_Seg09
R_rear_hand03 Rope3_Seg09
Rope4_Seg01 null_rope04_connect
Rope4_Seg02 Rope4_Seg01
Rope4_Seg03 Rope4_Seg02
Rope4_Seg04 Rope4_Seg03
Rope4_Seg05 Rope4_Seg04
Rope4_Seg06 Rope4_Seg05
Rope4_Seg07 Rope4_Seg06
Rope4_Seg08 Rope4_Seg07
Rope4_Seg09 Rope4_Seg08
L_rear_hand01 Rope4_Seg09
L_rear_hand02 Rope4_Seg09
L_rear_hand03 Rope4_Seg09
[BasePosition]
#SegmentName Tx, Ty, Tz, Rx, Ry, Rz, BoneLength
MASTER 0.000000 0.000000 0.000000 -90.000000 0.000000 0.000000 10.000000 
root 0.000000 0.000000 0.000000 0.000000 0.000000 0.000000 10.000000 
chest 0.000000 0.000000 0.000000 0.000000 0.000000 0.000000 10.000000 
L_mid_tent01 0.000000 0.000000 0.000000 0.000000 0.000000 0.000000 10.000000 
R_mid_tent01 0.000000 0.000000 0.000000 0.000000 0.000000 0.000000 10.000000 
spine01 0.000000 0.000000 0.000000 0.000000 0.000000 0.000000 10.000000 
Bip01_Neck 0.000000 0.000000 0.000000 0.000000 0.000000 0.000000 10.000000 
L_humerus 0.000000 0.000000 0.000000 0.000000 0.000000 0.000000 10.000000 
R_humerus 0.000000 0.000000 0.000000 0.000000 0.000000 0.000000 10.000000 
weapon_bone 0.000000 0.000000 0.000000 0.000000 0.000000 0.000000 10.000000 
Bip01_Head 0.000000 0.000000 0.000000 0.000000 0.000000 0.000000 10.000000 
eye_left_bone 0.000000 0.000000 0.000000 0.000000 0.000000 0.000000 10.000000 
eye_right_bone 0.000000 0.000000 0.000000 0.000000 0.000000 0.000000 10.000000 
L_forearm 0.000000 0.000000 0.000000 0.000000 0.000000 0.000000 10.000000 
L_front_hand 0.000000 0.000000 0.000000 0.000000 0.000000 0.000000 10.000000 
L_weapon_bone 0.000000 0.000000 0.000000 0.000000 0.000000 0.000000 10.000000 
L_front_hand01_01 0.000000 0.000000 0.000000 0.000000 0.000000 0.000000 10.000000 
L_front_hand02_01 0.000000 0.000000 0.000000 0.000000 0.000000 0.000000 10.000000 
L_front_hand03_01 0.000000 0.000000 0.000000 0.000000 0.000000 0.000000 10.000000 
L_front_hand01_02 0.000000 0.000000 0.000000 0.000000 0.000000 0.000000 10.000000 
L_front_hand02_02 0.000000 0.000000 0.000000 0.000000 0.000000 0.000000 10.000000 
L_front_hand03_02 0.000000 0.000000 0.000000 0.000000 0.000000 0.000000 10.000000 
R_forearm 0.000000 0.000000 0.000000 0.000000 0.000000 0.000000 10.000000 
R_front_hand 0.000000 0.000000 0.000000 0.000000 0.000000 0.000000 10.000000 
R_weapon_bone 0.000000 0.000000 0.000000 0.000000 0.000000 0.000000 10.000000 
R_front_hand01_01 0.000000 0.000000 0.000000 0.000000 0.000000 0.000000 10.000000 
R_front_hand02_01 0.000000 0.000000 0.000000 0.000000 0.000000 0.000000 10.000000 
R_front_hand03_01 0.000000 0.000000 0.000000 0.000000 0.000000 0.000000 10.000000 
R_front_hand01_02 0.000000 0.000000 0.000000 0.000000 0.000000 0.000000 10.000000 
R_front_hand02_02 0.000000 0.000000 0.000000 0.000000 0.000000 0.000000 10.000000 
R_front_hand03_02 0.000000 0.000000 0.000000 0.000000 0.000000 0.000000 10.000000 
null_rope01_connect 0.000000 0.000000 0.000000 0.000000 0.000000 0.000000 10.000000 
Rope1_Seg01 0.000000 0.000000 0.000000 0.000000 0.000000 0.000000 10.000000 
Rope1_Seg02 0.000000 0.000000 0.000000 0.000000 0.000000 0.000000 10.000000 
Rope1_Seg03 0.000000 0.000000 0.000000 0.000000 0.000000 0.000000 10.000000 
Rope1_Seg04 0.000000 0.000000 0.000000 0.000000 0.000000 0.000000 10.000000 
Rope1_Seg05 0.000000 0.000000 0.000000 0.000000 0.000000 0.000000 10.000000 
Rope1_Seg06 0.000000 0.000000 0.000000 0.000000 0.000000 0.000000 10.000000 
Rope1_Seg07 0.000000 0.000000 0.000000 0.000000 0.000000 0.000000 10.000000 
Rope1_Seg09 0.000000 0.000000 0.000000 0.000000 0.000000 0.000000 10.000000 
L_mid_hand01 0.000000 0.000000 0.000000 0.000000 0.000000 0.000000 10.000000 
L_mid_hand02 0.000000 0.000000 0.000000 0.000000 0.000000 0.000000 10.000000 
L_mid_hand03 0.000000 0.000000 0.000000 0.000000 0.000000 0.000000 10.000000 
null_rope02_connect 0.000000 0.000000 0.000000 0.000000 0.000000 0.000000 10.000000 
Rope2_Seg01 0.000000 0.000000 0.000000 0.000000 0.000000 0.000000 10.000000 
Rope2_Seg02 0.000000 0.000000 0.000000 0.000000 0.000000 0.000000 10.000000 
Rope2_Seg03 0.000000 0.000000 0.000000 0.000000 0.000000 0.000000 10.000000 
Rope2_Seg04 0.000000 0.000000 0.000000 0.000000 0.000000 0.000000 10.000000 
Rope2_Seg05 0.000000 0.000000 0.000000 0.000000 0.000000 0.000000 10.000000 
Rope2_Seg06 0.000000 0.000000 0.000000 0.000000 0.000000 0.000000 10.000000 
Rope2_Seg07 0.000000 0.000000 0.000000 0.000000 0.000000 0.000000 10.000000 
Rope2_Seg09 0.000000 0.000000 0.000000 0.000000 0.000000 0.000000 10.000000 
R_mid_hand01 0.000000 0.000000 0.000000 0.000000 0.000000 0.000000 10.000000 
R_mid_hand02 0.000000 0.000000 0.000000 0.000000 0.000000 0.000000 10.000000 
R_mid_hand03 0.000000 0.000000 0.000000 0.000000 0.000000 0.000000 10.000000 
spine02 0.000000 0.000000 0.000000 0.000000 0.000000 0.000000 10.000000 
spine03 0.000000 0.000000 0.000000 0.000000 0.000000 0.000000 10.000000 
pelvis 0.000000 0.000000 0.000000 0.000000 0.000000 0.000000 10.000000 
null_rope03_connect 0.000000 0.000000 0.000000 0.000000 0.000000 0.000000 10.000000 
null_rope04_connect 0.000000 0.000000 0.000000 0.000000 0.000000 0.000000 10.000000 
Rope3_Seg01 0.000000 0.000000 0.000000 0.000000 0.000000 0.000000 10.000000 
Rope3_Seg02 0.000000 0.000000 0.000000 0.000000 0.000000 0.000000 10.000000 
Rope3_Seg03 0.000000 0.000000 0.000000 0.000000 0.000000 0.000000 10.000000 
Rope3_Seg04 0.000000 0.000000 0.000000 0.000000 0.000000 0.000000 10.000000 
Rope3_Seg05 0.000000 0.000000 0.000000 0.000000 0.000000 0.000000 10.000000 
Rope3_Seg06 0.000000 0.000000 0.000000 0.000000 0.000000 0.000000 10.000000 
Rope3_Seg07 0.000000 0.000000 0.000000 0.000000 0.000000 0.000000 10.000000 
Rope3_Seg08 0.000000 0.000000 0.000000 0.000000 0.000000 0.000000 10.000000 
Rope3_Seg09 0.000000 0.000000 0.000000 0.000000 0.000000 0.000000 10.000000 
R_rear_hand01 0.000000 0.000000 0.000000 0.000000 0.000000 0.000000 10.000000 
R_rear_hand02 0.000000 0.000000 0.000000 0.000000 0.000000 0.000000 10.000000 
R_rear_hand03 0.000000 0.000000 0.000000 0.000000 0.000000 0.000000 10.000000 
Rope4_Seg01 0.000000 0.000000 0.000000 0.000000 0.000000 0.000000 10.000000 
Rope4_Seg02 0.000000 0.000000 0.000000 0.000000 0.000000 0.000000 10.000000 
Rope4_Seg03 0.000000 0.000000 0.000000 0.000000 0.000000 0.000000 10.000000 
Rope4_Seg04 0.000000 0.000000 0.000000 0.000000 0.000000 0.000000 10.000000 
Rope4_Seg05 0.000000 0.000000 0.000000 0.000000 0.000000 0.000000 10.000000 
Rope4_Seg06 0.000000 0.000000 0.000000 0.000000 0.000000 0.000000 10.000000 
Rope4_Seg07 0.000000 0.000000 0.000000 0.000000 0.000000 0.000000 10.000000 
Rope4_Seg08 0.000000 0.000000 0.000000 0.000000 0.000000 0.000000 10.000000 
Rope4_Seg09 0.000000 0.000000 0.000000 0.000000 0.000000 0.000000 10.000000 
L_rear_hand01 0.000000 0.000000 0.000000 0.000000 0.000000 0.000000 10.000000 
L_rear_hand02 0.000000 0.000000 0.000000 0.000000 0.000000 0.000000 10.000000 
L_rear_hand03 0.000000 0.000000 0.000000 0.000000 0.000000 0.000000 10.000000 
#Beginning of Data. Separated by tabs
#Fr	Tx	Ty	Tz	Rx	Ry	Rz	SF
[MASTER]
27 252.185822 5561.422852 2479.067383 0.001660 0.001660 0.001660 6094.160645
28 267.147003 5611.527832 2400.207764 0.001660 0.001660 0.001660 6109.141113
[root]
27 521.377014 -118.738403 541.753357 -42.397274 -43.144863 -63.270672 761.202637
28 561.340942 -118.178108 543.289185 -42.939030 -43.249039 -62.656891 790.084045
[chest]
27 -84.512650 -34.090519 0.000000 8.406137 -24.626112 159.045059 91.129311
28 -84.512650 -34.090519 0.000000 13.726450 -29.839165 163.177368 91.129311
[L_mid_tent01]
27 27.299307 22.179354 -249.918671 -7.121889 17.441788 67.929787 252.381699
28 27.299316 22.179358 -249.918671 -7.455339 17.287891 67.267502 252.381699
[R_mid_tent01]
27 23.228794 24.509907 226.238495 157.848541 -36.187145 63.645390 228.744751
28 23.228794 24.509907 226.238495 157.322586 -36.949669 63.425289 228.744751
[spine01]
27 -0.361383 -0.195265 0.000000 -0.000001 -0.000007 22.052340 0.410763
28 -0.361383 -0.195265 0.000000 -0.000001 -0.000007 22.052340 0.410763
[Bip01_Neck]
27 165.484543 71.581718 0.000119 176.643677 -1.657967 43.431911 180.302734
28 165.484543 71.581718 0.000119 176.643677 -1.657967 43.431911 180.302734
[L_humerus]
27 -13.983130 -135.272980 -120.471481 164.203522 59.776443 -103.130836 181.680161
28 -13.983130 -135.272980 -120.471481 164.875427 58.768494 -102.352463 181.680161
[R_humerus]
27 -13.983309 -135.273102 125.287651 -175.557693 -43.696510 -88.755478 184.909012
28 -13.983309 -135.273102 125.287651 -175.735748 -42.906887 -88.531448 184.909012
[weapon_bone]
27 235.964890 -300.705902 0.000000 0.000000 -89.951546 -128.212341 382.234833
28 235.964890 -300.705902 0.000000 0.000000 -89.951546 -128.212341 382.234833
[Bip01_Head]
27 213.346848 185.986115 8.283030 12.077415 -2.297509 -48.813980 283.154236
28 213.349594 185.978363 8.382907 12.637186 -2.260935 -48.782780 283.154175
[eye_left_bone]
27 -24.626970 125.451866 -64.772606 0.000000 -90.000000 -99.840431 143.318359
28 -24.626970 125.451866 -64.772606 0.000000 -90.000000 -99.840431 143.318359
[eye_right_bone]
27 -24.626970 125.451866 64.327362 0.000000 -89.965736 80.156380 143.117676
28 -24.626970 125.451866 64.327362 0.000000 -89.965736 80.156380 143.117676
[L_forearm]
27 322.776093 0.000000 -0.000119 0.000434 -0.002307 -111.307083 322.776093
28 322.776093 0.000000 -0.000119 0.000434 -0.002307 -111.317566 322.776093
[L_front_hand]
27 241.149185 -0.042021 -3.300071 -178.667953 -1.835447 -27.422342 241.171753
28 241.149185 -0.042021 -3.300071 -178.667953 -1.835447 -27.422350 241.171753
[L_weapon_bone]
27 156.183838 0.000000 0.000000 0.000014 0.000007 0.000001 156.183838
28 156.183838 0.000000 0.000000 0.000014 0.000007 0.000001 156.183838
[L_front_hand01_01]
27 86.095154 20.947098 -0.655860 -0.366594 -0.477154 75.385574 88.609184
28 86.095154 20.947098 -0.655860 -0.366594 -0.477154 75.385582 88.609184
[L_front_hand02_01]
27 86.935165 -11.437475 24.513514 154.399796 -59.883835 -61.369587 91.046425
28 86.935165 -11.437475 24.513514 154.399796 -59.883835 -61.369587 91.046425
[L_front_hand03_01]
27 86.637497 -14.123976 -20.424902 -153.913849 58.118122 -62.702866 90.126129
28 86.637497 -14.123976 -20.424902 -153.913849 58.118122 -62.702866 90.126129
[L_front_hand01_02]
27 71.020905 -0.000179 0.000030 0.000334 -0.002323 -106.368027 71.020905
28 71.020905 -0.000179 0.000030 0.000334 -0.002323 -106.368706 71.020905
[L_front_hand02_02]
27 71.020927 -0.000119 0.000060 0.000334 -0.002323 -106.368027 71.020927
28 71.020927 -0.000119 0.000060 0.000334 -0.002323 -106.368706 71.020927
[L_front_hand03_02]
27 71.020905 -0.000060 0.000060 0.000334 -0.002323 -106.368027 71.020905
28 71.020905 -0.000060 0.000060 0.000334 -0.002323 -106.368706 71.020905
[R_forearm]
27 322.776428 -0.000060 0.000030 0.200990 0.068512 -109.970169 322.776428
28 322.776428 -0.000060 0.000030 0.200987 0.068523 -109.976204 322.776428
[R_front_hand]
27 238.847015 -0.006795 2.210259 -2.635298 -10.645461 -26.312506 238.857239
28 238.847015 -0.006795 2.210259 -2.635298 -10.645461 -26.312506 238.857239
[R_weapon_bone]
27 155.664093 0.002503 -0.000030 0.003487 0.001180 -90.988930 155.664078
28 155.664093 0.002503 -0.000030 0.003487 0.001180 -90.988930 155.664078
[R_front_hand01_01]
27 87.624611 14.231146 22.918642 -154.633499 -59.950619 61.746044 91.683487
28 87.624611 14.231146 22.918642 -154.633484 -59.950607 61.746033 91.683487
[R_front_hand02_01]
27 89.356956 14.367283 -19.491137 154.602661 58.302849 63.744389 92.579636
28 89.356956 14.367283 -19.491137 154.602676 58.302864 63.744389 92.579636
[R_front_hand03_01]
27 87.286232 -22.307278 -0.143439 0.162155 -0.423168 -75.767921 90.091743
28 87.286232 -22.307278 -0.143439 0.162155 -0.423168 -75.767906 90.091743
[R_front_hand01_02]
27 71.020905 0.000060 0.000119 0.002323 -0.000334 106.381714 71.020905
28 71.020905 0.000060 0.000119 0.002323 -0.000334 106.381714 71.020905
[R_front_hand02_02]
27 71.020844 -0.000030 -0.000119 0.002323 -0.000334 106.381714 71.020836
28 71.020844 -0.000030 -0.000119 0.002323 -0.000334 106.381714 71.020836
[R_front_hand03_02]
27 71.020905 0.000000 0.000030 0.002323 -0.000334 106.381714 71.020905
28 71.020905 0.000000 0.000030 0.002323 -0.000334 106.381714 71.020905
[null_rope01_connect]
27 328.732483 0.000000 -0.000238 63.153084 -39.300068 -4.246660 328.732483
28 328.732483 0.000000 -0.000238 63.910034 -39.137169 -4.202330 328.732483
[Rope1_Seg01]
27 0.000038 -0.000409 0.000153 37.598866 38.109463 -130.536346 0.000438
28 0.000038 -0.000423 0.000153 38.287090 37.446777 -129.790787 0.000451
[Rope1_Seg02]
27 139.999863 -0.000179 0.000000 7.177901 19.173998 4.221097 139.999863
28 139.999863 -0.000179 0.000000 6.276147 19.380527 1.993958 139.999863
[Rope1_Seg03]
27 139.999924 0.000060 -0.000060 2.291777 18.895790 -0.068202 139.999924
28 139.999924 0.000060 -0.000060 1.238975 17.556257 -2.554761 139.999924
[Rope1_Seg04]
27 139.999924 -0.000060 -0.000119 -0.403885 19.650259 2.296021 139.999924
28 139.999924 -0.000060 -0.000119 -0.969464 17.431578 0.323414 139.999924
[Rope1_Seg05]
27 139.999832 0.000119 -0.000060 -4.893759 30.185369 10.539945 139.999832
28 139.999832 0.000119 -0.000060 -6.565610 33.025524 10.772759 139.999832
[Rope1_Seg06]
27 139.999954 0.000119 -0.000060 -5.626057 15.163407 7.045780 139.999954
28 139.999954 0.000119 -0.000060 -7.836976 18.309151 9.023444 139.999954
[Rope1_Seg07]
27 139.999985 0.000060 0.000000 -3.292298 6.742054 3.922285 139.999985
28 139.999985 0.000060 0.000000 -4.193579 7.306900 4.848267 139.999985
[Rope1_Seg09]
27 121.602913 0.000119 -0.000089 -89.793175 -1.359789 0.847147 121.602913
28 121.602913 0.000119 -0.000089 -89.793175 -1.359789 0.847147 121.602913
[L_mid_hand01]
27 103.859421 1.038730 8.195221 130.544373 -67.584534 -38.866940 104.187431
28 103.859421 1.038730 8.195221 130.544373 -67.584534 -38.866943 104.187431
[L_mid_hand02]
27 105.572853 -4.139662 -10.864139 -168.923172 43.409317 -73.498894 106.211075
28 105.572853 -4.139662 -10.864139 -168.923172 43.409309 -73.498886 106.211075
[L_mid_hand03]
27 104.641464 17.579376 -3.913581 -6.012628 17.808174 74.893669 106.179977
28 104.641464 17.579376 -3.913581 -6.012627 17.808174 74.893669 106.179977
[null_rope02_connect]
27 328.732849 0.000179 -0.000119 -99.640160 -10.941748 -10.289371 328.732849
28 328.732849 0.000179 -0.000119 -98.665474 -11.646534 -10.548250 328.732849
[Rope2_Seg01]
27 0.000083 -0.000304 0.000000 12.872137 -21.500834 145.287766 0.000315
28 0.000083 -0.000320 0.000000 27.855394 -22.721357 134.890808 0.000330
[Rope2_Seg02]
27 139.999741 -0.000060 -0.000119 7.537085 0.346789 -6.814453 139.999756
28 139.999741 -0.000060 -0.000119 8.875544 -0.909428 -7.724018 139.999756
[Rope2_Seg03]
27 140.000107 0.000030 0.000000 18.056259 -1.129867 -13.604821 140.000107
28 140.000107 0.000030 0.000000 21.028685 -4.578524 -16.355255 140.000107
[Rope2_Seg04]
27 139.999802 0.000000 -0.000060 44.440563 -15.116100 -34.877296 139.999802
28 139.999802 0.000000 -0.000060 40.759636 -26.085958 -37.858883 139.999802
[Rope2_Seg05]
27 139.999985 -0.000060 0.000119 14.478985 -15.322542 -14.484780 139.999985
28 139.999985 -0.000060 0.000119 6.965682 -10.653937 -11.398154 139.999985
[Rope2_Seg06]
27 139.999893 -0.000030 -0.000119 4.161790 -4.482026 -6.216340 139.999893
28 139.999893 -0.000030 -0.000119 2.711250 -0.956146 -7.491632 139.999893
[Rope2_Seg07]
27 139.999893 0.000060 -0.000060 2.489874 -4.980157 -3.345359 139.999893
28 139.999893 0.000060 -0.000060 2.440726 -3.971705 -5.049146 139.999893
[Rope2_Seg09]
27 121.338966 0.000089 -0.000060 33.793236 -1.359788 -0.847141 121.338966
28 121.338966 0.000089 -0.000060 33.793236 -1.359788 -0.847141 121.338966
[R_mid_hand01]
27 104.680779 11.144459 -10.335981 -16.212070 45.237247 70.462852 105.778534
28 104.680779 11.144459 -10.335981 -16.212063 45.237240 70.462852 105.778534
[R_mid_hand02]
27 104.070427 2.443552 8.231699 49.067387 -67.749794 39.286457 104.424065
28 104.070427 2.443552 8.231699 49.067375 -67.749794 39.286476 104.424065
[R_mid_hand03]
27 106.028137 -11.221827 -5.996406 -177.101105 15.551026 -76.585564 106.788818
28 106.028137 -11.221827 -5.996406 -177.101105 15.551026 -76.585571 106.788818
[spine02]
27 129.756927 0.001550 0.000119 0.549494 -4.022302 -15.644805 129.756927
28 129.756927 0.001550 0.000119 0.549845 -4.022253 -15.654804 129.756927
[spine03]
27 78.613815 0.081682 -4.898945 2.008949 3.773690 18.182798 78.766357
28 78.613808 0.081684 -4.898943 2.008850 3.773744 18.179792 78.766350
[pelvis]
27 169.435242 0.051022 0.000000 -0.032023 -0.189935 5.384742 169.435257
28 169.435242 0.051022 0.000000 -0.031096 -0.190089 4.825306 169.435257
[null_rope03_connect]
27 -1.257226 -2.466202 137.391083 53.803059 -20.849592 39.543297 137.418976
28 -1.257226 -2.466202 137.391083 54.230511 -20.830385 39.682354 137.418976
[null_rope04_connect]
27 -1.259640 -2.480268 -137.844437 53.803059 -20.849592 39.543297 137.872513
28 -1.259640 -2.480268 -137.844437 54.230511 -20.830385 39.682354 137.872513
[Rope3_Seg01]
27 -0.000035 0.000000 -0.000048 82.310692 -53.712452 -139.817429 0.000059
28 -0.000035 0.000000 -0.000050 82.504807 -53.491215 -140.089294 0.000061
[Rope3_Seg02]
27 139.999924 -0.000119 0.000060 7.978140 -1.651011 17.171877 139.999924
28 139.999924 -0.000119 0.000060 8.055979 -1.632187 17.233049 139.999924
[Rope3_Seg03]
27 139.999924 -0.000119 0.000119 4.766392 0.441280 21.751904 139.999924
28 139.999924 -0.000119 0.000119 4.823298 0.558391 22.070204 139.999924
[Rope3_Seg04]
27 139.999924 0.000119 0.000000 0.612350 -2.525998 23.052977 139.999924
28 139.999924 0.000119 0.000000 0.554892 -2.266317 23.554371 139.999924
[Rope3_Seg05]
27 139.999924 -0.000238 0.000060 0.090098 3.213487 8.090388 139.999924
28 139.999924 -0.000238 0.000060 0.025534 3.084386 8.242048 139.999924
[Rope3_Seg06]
27 139.999893 -0.000119 -0.000060 4.061770 14.143126 -0.461675 139.999893
28 139.999893 -0.000119 -0.000060 3.976141 13.333651 -0.425229 139.999893
[Rope3_Seg07]
27 139.999771 0.000060 -0.000119 11.758702 28.566229 -6.823146 139.999771
28 139.999771 0.000060 -0.000119 11.624133 28.134560 -7.264373 139.999771
[Rope3_Seg08]
27 139.999985 -0.000060 0.000000 10.506611 18.207750 -5.884784 139.999985
28 139.999985 -0.000060 0.000000 10.555267 18.492544 -6.181041 139.999985
[Rope3_Seg09]
27 90.185997 -0.000179 -0.000060 89.793228 -1.359877 -0.847183 90.185997
28 90.185997 -0.000179 -0.000060 89.793228 -1.359877 -0.847183 90.185997
[R_rear_hand01]
27 103.366196 -6.073594 -10.757982 -177.714188 24.565968 -73.910950 104.101845
28 103.366196 -6.073594 -10.757982 -177.714188 24.565966 -73.910950 104.101845
[R_rear_hand02]
27 100.509819 12.039542 -7.992327 -12.874839 36.868492 72.167213 101.543350
28 100.509819 12.039542 -7.992327 -12.874829 36.868488 72.167213 101.543350
[R_rear_hand03]
27 101.539970 5.215704 5.435467 71.484573 -71.816628 21.513811 101.819031
28 101.539970 5.215704 5.435467 71.484581 -71.816628 21.513813 101.819031
[Rope4_Seg01]
27 0.000004 -0.000409 -0.000153 -108.581512 16.969414 -144.636551 0.000436
28 0.000003 -0.000423 -0.000153 -108.614799 17.597252 -141.878036 0.000450
[Rope4_Seg02]
27 139.999985 0.000060 0.000119 -0.737389 -6.473516 -1.824260 139.999985
28 139.999985 0.000060 0.000119 -0.661697 -7.376528 -2.166206 139.999985
[Rope4_Seg03]
27 139.999924 0.000000 -0.000238 -0.588111 -9.851073 -2.951262 139.999924
28 139.999924 0.000000 -0.000238 -0.402806 -11.340508 -3.537337 139.999924
[Rope4_Seg04]
27 139.999985 0.000000 0.000119 -0.721527 -16.459475 -3.467573 139.999985
28 139.999985 0.000000 0.000119 -0.294690 -17.714767 -3.817288 139.999985
[Rope4_Seg05]
27 139.999802 -0.000060 -0.000119 0.970726 -21.141108 -5.000805 139.999802
28 139.999802 -0.000060 -0.000119 1.392733 -19.474611 -6.051045 139.999802
[Rope4_Seg06]
27 139.999924 0.000000 0.000060 -0.924456 -13.965948 -15.167757 139.999924
28 139.999924 0.000000 0.000060 -0.993416 -18.329771 -16.180292 139.999924
[Rope4_Seg07]
27 139.999802 0.000000 0.000000 -7.610690 -9.255473 -16.652397 139.999802
28 139.999802 0.000000 0.000000 -9.285554 -14.712993 -16.137938 139.999802
[Rope4_Seg08]
27 139.999924 0.000000 0.000119 -8.167200 -5.170895 -8.955317 139.999924
28 139.999924 0.000000 0.000119 -12.743383 -6.369106 -8.661815 139.999924
[Rope4_Seg09]
27 90.185791 0.000060 0.000060 -135.617828 2.228885 0.850567 90.185791
28 90.185791 0.000060 0.000060 -135.617828 2.228885 0.850567 90.185791
[L_rear_hand01]
27 101.696655 -8.392275 -7.654577 -12.874829 -36.868488 107.832764 102.329041
28 101.696655 -8.392275 -7.654577 -12.874831 -36.868492 107.832779 102.329041
[L_rear_hand02]
27 102.726799 -1.568258 5.773216 71.484581 71.816628 158.486160 102.900848
28 102.726799 -1.568258 5.773216 71.484573 71.816628 158.486160 102.900848
[L_rear_hand03]
27 104.552910 9.721220 -10.420293 -177.714203 -24.565960 -106.089035 105.519653
28 104.552910 9.721220 -10.420293 -177.714203 -24.565966 -106.089035 105.519653
